<svg width="1440" height="3422" viewBox="0 0 1440 3422" fill="none" xmlns="http://www.w3.org/2000/svg">
<path opacity="0.25" d="M1481.28 151.634C1428.14 149.865 1375.65 147.163 1324.79 155.436C1218.14 172.784 1113.48 207.701 1019.69 253.841C995.372 265.808 969.875 281.744 950.351 301.019C948.667 302.681 937.907 312.634 946.921 319.275C964.843 332.48 1029.87 353.509 1036 355.519C1119.23 382.825 1206.2 397.496 1288.51 434.168C1385.93 477.573 1475.52 575.471 1509.91 683.295C1550.98 812.043 1470.42 878.204 1381.48 914.842C1307.43 945.349 1254.85 954.537 1170.17 953.36C1118.99 952.649 1070.57 947.325 1020.01 918.444C1000.54 907.326 982.231 892.491 965.067 876.678C935.796 849.712 856.87 759.225 834.618 730.255C796.541 680.683 725.786 586.284 766.07 531.753C779.702 513.299 803.226 525.844 820.95 540.104C874.761 583.4 921.425 645.636 959.062 704.787C977.686 734.056 989.766 767.105 998.608 799.297C1029.34 911.168 1031.75 1016.12 984.301 1104.77C957.163 1155.48 907.396 1216.69 846.922 1245.95" stroke="#B68912" stroke-linecap="round" stroke-linejoin="round"/>
<path opacity="0.25" d="M-89.4853 1300.3C-31.5439 1164.7 78.3251 1206.14 86.8307 1208.98C249.66 1263.23 233.841 1502 248.113 1632.4C253.703 1683.46 267.464 1806.93 278.735 1866.4C284.263 1895.57 290.807 1941.17 325.898 1944.15C350.007 1946.19 360.31 1937.35 378.069 1918.65C436.816 1856.77 503.714 1792.33 548.677 1718.7C581.345 1665.21 649.129 1568.52 654.283 1499.88C659.811 1426.25 552.861 1350.4 492.897 1340.39C451.389 1333.45 399.588 1360.18 369.087 1393.43C286.391 1483.58 279.518 1643.25 311.915 1763.89C373.46 1993.07 587.818 2114.79 792.098 2128.83C858.757 2133.41 928.589 2121.13 992.769 2106.07C1014.62 2100.94 1046.21 2083.42 1040.01 2052.7C1037.38 2039.67 1022.11 2018.07 1012.17 2012.36C953.438 1978.63 903.042 2044.09 876.074 2086.84C831.408 2157.65 807.082 2230.54 783.68 2312.67C763.415 2383.8 758.436 2447.5 748.445 2519.49" stroke="#B68912" stroke-linecap="round" stroke-linejoin="round"/>
<path opacity="0.25" d="M751.911 2494.21C746.577 2539.37 740.495 2583.9 743.883 2627.84C750.986 2719.97 773.204 2811.67 805.769 2894.91C814.215 2916.5 825.959 2939.37 840.978 2957.4C842.273 2958.95 849.98 2968.84 856.288 2961.64C868.831 2947.31 891.434 2893.42 893.587 2888.34C922.851 2819.38 941.615 2746.32 978.792 2678.83C1022.8 2598.93 1112.67 2529.64 1207.03 2508.1C1319.7 2482.37 1370.28 2555.79 1395.1 2634.21C1415.76 2699.51 1419.8 2744.98 1412.7 2817.06C1408.41 2860.62 1400.39 2901.5 1372.13 2942.5C1361.26 2958.29 1347.3 2972.82 1332.59 2986.31C1307.5 3009.31 1224.71 3070.05 1198.42 3086.93C1153.43 3115.81 1067.9 3169.3 1024.33 3131.05C1009.59 3118.1 1021.97 3098.96 1035.4 3084.88C1076.17 3042.15 1132.56 3006.86 1185.68 2979.05C1211.96 2965.29 1240.99 2957.37 1269.06 2952.16C1366.61 2934.03 1456.21 2939.53 1528.35 2986.35C1569.6 3013.12 1618.18 3059.94 1638.76 3113.58" stroke="#B68912" stroke-linecap="round" stroke-linejoin="round"/>
<path opacity="0.25" d="M-425.476 1228C-397.325 1183.03 -370.323 1138.13 -334.978 1100.01C-260.863 1020.1 -173.05 950.536 -81.8382 895.554C-58.1827 881.295 -30.5257 868.027 -3.38545 861.369C-1.04517 860.795 13.3472 856.794 13.918 867.564C15.0528 888.976 -3.49128 953.356 -5.21446 959.436C-28.6254 1042.04 -64.7675 1121.48 -79.764 1207.94C-97.5139 1310.29 -64.9569 1433.12 6.75653 1515.06C92.3858 1612.9 193.1 1578.81 273.595 1523.15C340.62 1476.8 377.694 1437.72 423.941 1366.85C451.888 1324.03 474.409 1281.21 478.266 1224.94C479.75 1203.29 477.458 1180.74 473.702 1158.67C467.296 1121.02 435.038 1010.71 423.028 977.893C402.478 921.744 362.365 816.275 293.922 822.701C270.762 824.876 268.215 850.611 270.351 872.382C276.833 938.481 303.271 1008.03 332.142 1068.56C346.428 1098.51 367.552 1124.9 389.758 1148.18C466.929 1229.08 554.054 1283.06 655.265 1287.59C713.145 1290.18 792.508 1279.19 850.909 1243.49" stroke="#B68912" stroke-linecap="round" stroke-linejoin="round"/>
</svg>
